# xmcd
#
# Track frame offsets: 
#        150
#        15382
#        36777
#        58915
#        78838
#        96823
#        113107
#        122605
#        143080
#        161314
#        190329
#        204529
#        223759
#        247992
#        258085
#        275289
#        293531
#
# Disc length: 4210 seconds
#
# Revision: 0
# Processed by: cddbd v1.5.2PL0 Copyright (c) Steve Scherf et al.
# Submitted via: ExactAudioCopy v0.95a4
#
DISCID=e3107011
DTITLE=Various Artist - 中国民歌珍藏 II
DYEAR=2002
DGENRE=民歌
TTITLE0=美丽草原我的家(德德玛)
TTITLE1=大哥你好吗(甘萍)
TTITLE2=潮湿的心(李艳秋)
TTITLE3=月光下的凤尾竹(于淑珍)
TTITLE4=雾里看花(那英)
TTITLE5=爱的奉献(韦唯)
TTITLE6=请到天涯海角来(沈小岑)
TTITLE7=蓝色的一首歌(蓝梦)
TTITLE8=大花轿(火风)
TTITLE9=你在他乡还好吗(李进)
TTITLE10=好汉歌(刘欢)
TTITLE11=九月九的酒(陈少华)
TTITLE12=朋友(臧天朔)
TTITLE13=年轻的朋友来相会(群星合唱)
TTITLE14=野花(田震)
TTITLE15=相约九八(王菲/那英)
TTITLE16=流浪歌(陈星)
EXTD=
EXTT0=
EXTT1=
EXTT2=
EXTT3=
EXTT4=
EXTT5=
EXTT6=
EXTT7=
EXTT8=
EXTT9=
EXTT10=
EXTT11=
EXTT12=
EXTT13=
EXTT14=
EXTT15=
EXTT16=
PLAYORDER=
